PathFileType	4	(x/y/z)	S10_M20_T34
DataRate	CameraRate	NumFrames	NumMarkers	Units	OrigDataRate	OrigDataStartFrame	OrigNumFrames
240	240	4	51	mm	240	334	534
Frame#	Time	Sternum			R.Acromium			L.Acromium			Top.Head			R.ASIS			L.ASIS			R.PSIS			L.PSIS			R.Great.Tro			L.Great.Tro			R.Iliac.Crest			L.Iliac.Crest			V.Sacral			R.Thigh.Upper.Post			R.Thigh.Lower.Ant			R.Thigh.Lower.Post			R.Thigh.Upper.Ant			R.Knee.Lat			R.Knee.Med			R.Shank.Upper.Post			R.Shank.Lower.Ant			R.Shank.Lower.Post			R.Shank.Upper.Ant			R.Ankle.Lat			R.Ankle.Med			R.Heel.Upper			R.Heel.Med			R.Heel.Lat			R.Toe.Lat			R.Toe.Med			R.Toe.Tip			L.Thigh.Upper.Post			L.Thigh.Lower.Ant			L.Thigh.Lower.Post			L.Thigh.Upper.Ant			L.Knee.Lat			L.Knee.Med			L.Shank.Upper.Post			L.Shank.Lower.Ant			L.Shank.Lower.Post			L.Shank.Upper.Ant			L.Ankle.Lat			L.Ankle.Med			L.Heel.Upper			L.Heel.Med			L.Heel.Lat			L.Toe.Lat			L.Toe.Med			L.Toe.Tip			Cervical.Spine			Back			
		X1	Y1	Z1	X2	Y2	Z2	X3	Y3	Z3	X4	Y4	Z4	X5	Y5	Z5	X6	Y6	Z6	X7	Y7	Z7	X8	Y8	Z8	X9	Y9	Z9	X10	Y10	Z10	X11	Y11	Z11	X12	Y12	Z12	X13	Y13	Z13	X14	Y14	Z14	X15	Y15	Z15	X16	Y16	Z16	X17	Y17	Z17	X18	Y18	Z18	X19	Y19	Z19	X20	Y20	Z20	X21	Y21	Z21	X22	Y22	Z22	X23	Y23	Z23	X24	Y24	Z24	X25	Y25	Z25	X26	Y26	Z26	X27	Y27	Z27	X28	Y28	Z28	X29	Y29	Z29	X30	Y30	Z30	X31	Y31	Z31	X32	Y32	Z32	X33	Y33	Z33	X34	Y34	Z34	X35	Y35	Z35	X36	Y36	Z36	X37	Y37	Z37	X38	Y38	Z38	X39	Y39	Z39	X40	Y40	Z40	X41	Y41	Z41	X42	Y42	Z42	X43	Y43	Z43	X44	Y44	Z44	X45	Y45	Z45	X46	Y46	Z46	X47	Y47	Z47	X48	Y48	Z48	X49	Y49	Z49	X50	Y50	Z50	X51	Y51	Z51	

334	1.3875	976.99	1227.4	304.78	887.58	1388	464.83	829.23	1402.7	161.74	816.2	1697.1	331.49	924.53	954.07	428.62	927.27	976.35	198.13	726.11	981.61	339.41	731.93	987.88	258.1	834.96	884.61	503.59	872.95	915.48	134.38	832.36	1038.5	472.12	857.69	1051.3	169.74	706.04	951.05	301.48	770.4	688.72	491.5	790.55	597.13	450.27	728.17	611.56	476.7	836.11	675.46	463.02	666.35	499.68	436.31	662.3	509.68	309.09	511.28	320.04	436.08	546.55	237.51	414.44	482.75	252.21	428.71	581.76	305.96	423.28	454.43	142.87	402.28	468.08	148.54	323.11	378.68	107.89	357.27	380.76	78.399	330.93	377.64	84.738	392.31	543.13	41.984	436.03	571.84	40.77	327.24	632.56	45.58	369.53	936.53	643.34	129.1	1037.2	599.97	147.9	976.51	558.37	148.82	1004.3	682.93	128.4	1049.8	501.27	155.6	1062.7	498.3	287.62	1101.5	284.01	151.99	1204.4	243.38	162.81	1144.7	219.23	159.51	1162	307.65	154.65	1242.2	125.89	169.38	1245.5	146.26	253.61	1205.8	62.901	211.61	1232.3	44.517	248.2	1229.6	41.078	182	1380	134.11	151.09	1391.6	159.54	257.62	1427.8	202.41	211.9	784.61	1450	338.46	695.74	1242.2	335.5
335	1.3917	983.05	1226.4	304.05	893.63	1387.1	463.93	835.18	1401.5	160.85	821.62	1696.1	330.51	930.62	953.01	428.14	933.51	975.44	197.6	732.28	980.66	338.82	738.1	986.96	257.49	840.8	883.61	503.09	879.33	914.78	133.9	838.41	1037.5	471.61	863.9	1050.4	169.14	712.21	950.12	300.87	775.62	688.03	491.02	795.5	596.31	449.93	733.13	611.02	476.25	841.29	674.48	462.67	670.85	499.34	435.96	667.12	509.16	308.75	514.31	321.01	436.01	548.81	238.13	414.48	485.17	253.42	428.75	584.6	306.32	423.27	455.82	144.28	402.45	469.51	149.73	323.32	379.79	109.97	357.47	381.58	80.567	331.05	378.47	86.709	392.44	543.41	42.083	436.13	572.13	40.847	327.37	632.78	45.43	369.6	943.57	642.82	128.89	1044.2	599.61	148.2	983.55	557.91	148.83	1011.3	682.49	128.5	1056.8	500.84	155.87	1069.2	497.93	287.87	1106.8	283.29	151.86	1209.4	241.83	163.07	1149.5	218.16	159.36	1167.5	306.45	154.97	1246.1	124.3	169.35	1249.2	144.2	253.77	1208.9	62.042	211.51	1235.1	43.217	248.03	1232.3	40.007	181.72	1383.8	131.06	151.45	1395.5	156.13	258.05	1432.2	198.68	212.53	790.55	1449	337.56	701.85	1241.1	334.87
336	1.3958	989.15	1225.4	303.3	899.7	1386.3	463.02	841.19	1400.4	159.94	827.05	1695.2	329.52	936.77	951.98	427.64	939.81	974.58	197.06	738.5	979.74	338.22	744.32	986.08	256.87	846.69	882.62	502.57	885.78	914.13	133.41	844.53	1036.5	471.1	870.17	1049.5	168.53	718.44	949.22	300.24	780.92	687.35	490.51	800.54	595.5	449.57	738.17	610.47	475.78	846.55	673.51	462.31	675.47	498.99	435.59	672.05	508.63	308.38	517.45	322	435.94	551.17	238.77	414.52	487.68	254.67	428.78	587.53	306.7	423.26	457.28	145.75	402.63	470.99	150.96	323.54	380.97	112.13	357.67	382.47	82.821	331.17	379.37	88.761	392.56	543.7	42.191	436.23	572.45	40.915	327.51	633	45.289	369.65	950.64	642.35	128.71	1051.3	599.28	148.54	990.62	557.48	148.86	1018.4	682.09	128.64	1063.8	500.44	156.17	1075.6	497.57	288.13	1112.1	282.61	151.72	1214.2	240.26	163.35	1154.2	217.09	159.21	1172.9	305.25	155.33	1249.7	122.7	169.3	1252.8	142.09	253.93	1211.8	61.309	211.43	1237.5	41.996	247.85	1234.7	39.012	181.46	1387.4	127.76	151.76	1399.1	152.46	258.42	1436.5	194.62	213.08	796.52	1448.1	336.65	708.01	1240.1	334.23
337	1.4	995.3	1224.4	302.53	905.81	1385.5	462.08	847.24	1399.2	159.02	832.48	1694.2	328.52	942.98	950.96	427.13	946.17	973.77	196.5	744.78	978.85	337.61	750.58	985.24	256.22	852.65	881.63	502.03	892.3	913.53	132.9	850.7	1035.6	470.58	876.48	1048.6	167.9	724.73	948.35	299.59	786.3	686.67	489.97	805.66	594.7	449.2	743.3	609.92	475.27	851.89	672.55	461.91	680.2	498.63	435.2	677.08	508.09	307.98	520.69	323.02	435.86	553.61	239.44	414.56	490.28	255.95	428.81	590.56	307.08	423.23	458.82	147.26	402.82	472.55	152.24	323.77	382.23	114.37	357.88	383.44	85.164	331.28	380.33	90.896	392.69	544.01	42.308	436.34	572.77	40.972	327.66	633.21	45.158	369.69	957.75	641.94	128.56	1058.4	598.99	148.92	997.7	557.1	148.92	1025.4	681.74	128.83	1070.8	500.09	156.48	1082	497.24	288.39	1117.4	281.96	151.6	1219	238.71	163.63	1158.9	216.06	159.05	1178.3	304.08	155.71	1253.2	121.11	169.23	1256.3	139.97	254.09	1214.5	60.723	211.38	1239.6	40.878	247.68	1236.8	38.118	181.22	1390.8	124.24	152.03	1402.7	148.58	258.72	1440.8	190.26	213.55	802.52	1447.1	335.71	714.22	1239.1	333.58
